<svg id="visual" viewBox="0 0 1000 740" width="1000" height="740" xmlns="http://www.w3.org/2000/svg" xmlns:xlink="http://www.w3.org/1999/xlink" version="1.1"><path d="M839 740L839 728.8C839 717.7 839 695.3 835.7 672.8C832.3 650.3 825.7 627.7 817.3 605.2C809 582.7 799 560.3 799 538C799 515.7 809 493.3 820.7 471C832.3 448.7 845.7 426.3 847.3 403.8C849 381.3 839 358.7 830.7 336.2C822.3 313.7 815.7 291.3 825.7 269C835.7 246.7 862.3 224.3 872.3 202C882.3 179.7 875.7 157.3 867.3 134.8C859 112.3 849 89.7 835.7 67.2C822.3 44.7 805.7 22.3 797.3 11.2L789 0L1000 0L1000 11.2C1000 22.3 1000 44.7 1000 67.2C1000 89.7 1000 112.3 1000 134.8C1000 157.3 1000 179.7 1000 202C1000 224.3 1000 246.7 1000 269C1000 291.3 1000 313.7 1000 336.2C1000 358.7 1000 381.3 1000 403.8C1000 426.3 1000 448.7 1000 471C1000 493.3 1000 515.7 1000 538C1000 560.3 1000 582.7 1000 605.2C1000 627.7 1000 650.3 1000 672.8C1000 695.3 1000 717.7 1000 728.8L1000 740Z" fill="#7369aa"></path><path d="M739 740L740.7 728.8C742.3 717.7 745.7 695.3 747.3 672.8C749 650.3 749 627.7 742.3 605.2C735.7 582.7 722.3 560.3 714 538C705.7 515.7 702.3 493.3 707.3 471C712.3 448.7 725.7 426.3 735.7 403.8C745.7 381.3 752.3 358.7 749 336.2C745.7 313.7 732.3 291.3 739 269C745.7 246.7 772.3 224.3 784 202C795.7 179.7 792.3 157.3 779 134.8C765.7 112.3 742.3 89.7 727.3 67.2C712.3 44.7 705.7 22.3 702.3 11.2L699 0L790 0L798.3 11.2C806.7 22.3 823.3 44.7 836.7 67.2C850 89.7 860 112.3 868.3 134.8C876.7 157.3 883.3 179.7 873.3 202C863.3 224.3 836.7 246.7 826.7 269C816.7 291.3 823.3 313.7 831.7 336.2C840 358.7 850 381.3 848.3 403.8C846.7 426.3 833.3 448.7 821.7 471C810 493.3 800 515.7 800 538C800 560.3 810 582.7 818.3 605.2C826.7 627.7 833.3 650.3 836.7 672.8C840 695.3 840 717.7 840 728.8L840 740Z" fill="#62579e"></path><path d="M579 740L557.3 728.8C535.7 717.7 492.3 695.3 472.3 672.8C452.3 650.3 455.7 627.7 467.3 605.2C479 582.7 499 560.3 504 538C509 515.7 499 493.3 492.3 471C485.7 448.7 482.3 426.3 477.3 403.8C472.3 381.3 465.7 358.7 457.3 336.2C449 313.7 439 291.3 442.3 269C445.7 246.7 462.3 224.3 469 202C475.7 179.7 472.3 157.3 485.7 134.8C499 112.3 529 89.7 525.7 67.2C522.3 44.7 485.7 22.3 467.3 11.2L449 0L700 0L703.3 11.2C706.7 22.3 713.3 44.7 728.3 67.2C743.3 89.7 766.7 112.3 780 134.8C793.3 157.3 796.7 179.7 785 202C773.3 224.3 746.7 246.7 740 269C733.3 291.3 746.7 313.7 750 336.2C753.3 358.7 746.7 381.3 736.7 403.8C726.7 426.3 713.3 448.7 708.3 471C703.3 493.3 706.7 515.7 715 538C723.3 560.3 736.7 582.7 743.3 605.2C750 627.7 750 650.3 748.3 672.8C746.7 695.3 743.3 717.7 741.7 728.8L740 740Z" fill="#514691"></path><path d="M459 740L445.7 728.8C432.3 717.7 405.7 695.3 389 672.8C372.3 650.3 365.7 627.7 369 605.2C372.3 582.7 385.7 560.3 394 538C402.3 515.7 405.7 493.3 397.3 471C389 448.7 369 426.3 364 403.8C359 381.3 369 358.7 367.3 336.2C365.7 313.7 352.3 291.3 349 269C345.7 246.7 352.3 224.3 360.7 202C369 179.7 379 157.3 390.7 134.8C402.3 112.3 415.7 89.7 409 67.2C402.3 44.7 375.7 22.3 362.3 11.2L349 0L450 0L468.3 11.2C486.7 22.3 523.3 44.7 526.7 67.2C530 89.7 500 112.3 486.7 134.8C473.3 157.3 476.7 179.7 470 202C463.3 224.3 446.7 246.7 443.3 269C440 291.3 450 313.7 458.3 336.2C466.7 358.7 473.3 381.3 478.3 403.8C483.3 426.3 486.7 448.7 493.3 471C500 493.3 510 515.7 505 538C500 560.3 480 582.7 468.3 605.2C456.7 627.7 453.3 650.3 473.3 672.8C493.3 695.3 536.7 717.7 558.3 728.8L580 740Z" fill="#443a83"></path><path d="M319 740L312.3 728.8C305.7 717.7 292.3 695.3 275.7 672.8C259 650.3 239 627.7 242.3 605.2C245.7 582.7 272.3 560.3 282.3 538C292.3 515.7 285.7 493.3 274 471C262.3 448.7 245.7 426.3 244 403.8C242.3 381.3 255.7 358.7 249 336.2C242.3 313.7 215.7 291.3 207.3 269C199 246.7 209 224.3 222.3 202C235.7 179.7 252.3 157.3 262.3 134.8C272.3 112.3 275.7 89.7 272.3 67.2C269 44.7 259 22.3 254 11.2L249 0L350 0L363.3 11.2C376.7 22.3 403.3 44.7 410 67.2C416.7 89.7 403.3 112.3 391.7 134.8C380 157.3 370 179.7 361.7 202C353.3 224.3 346.7 246.7 350 269C353.3 291.3 366.7 313.7 368.3 336.2C370 358.7 360 381.3 365 403.8C370 426.3 390 448.7 398.3 471C406.7 493.3 403.3 515.7 395 538C386.7 560.3 373.3 582.7 370 605.2C366.7 627.7 373.3 650.3 390 672.8C406.7 695.3 433.3 717.7 446.7 728.8L460 740Z" fill="#3b3475"></path><path d="M0 740L0 728.8C0 717.7 0 695.3 0 672.8C0 650.3 0 627.7 0 605.2C0 582.7 0 560.3 0 538C0 515.7 0 493.3 0 471C0 448.7 0 426.3 0 403.8C0 381.3 0 358.7 0 336.2C0 313.7 0 291.3 0 269C0 246.7 0 224.3 0 202C0 179.7 0 157.3 0 134.8C0 112.3 0 89.7 0 67.2C0 44.7 0 22.3 0 11.2L0 0L250 0L255 11.2C260 22.3 270 44.7 273.3 67.2C276.7 89.7 273.3 112.3 263.3 134.8C253.3 157.3 236.7 179.7 223.3 202C210 224.3 200 246.7 208.3 269C216.7 291.3 243.3 313.7 250 336.2C256.7 358.7 243.3 381.3 245 403.8C246.7 426.3 263.3 448.7 275 471C286.7 493.3 293.3 515.7 283.3 538C273.3 560.3 246.7 582.7 243.3 605.2C240 627.7 260 650.3 276.7 672.8C293.3 695.3 306.7 717.7 313.3 728.8L320 740Z" fill="#332e66"></path></svg>